<?xml version="1.0" encoding="utf-8"?>
<!-- Generator: Adobe Illustrator 22.1.0, SVG Export Plug-In . SVG Version: 6.00 Build 0)  -->
<svg version="1.1" id="Layer_1" xmlns="http://www.w3.org/2000/svg" xmlns:xlink="http://www.w3.org/1999/xlink" x="0px" y="0px"
	 viewBox="0 0 100 100" style="enable-background:new 0 0 100 100;" xml:space="preserve">
<style type="text/css">
	.st0{fill:none;}
	.st1{fill:url(#SVGID_1_);}
	.st2{fill:url(#SVGID_2_);}
	.st3{fill:url(#SVGID_3_);}
	.st4{fill:url(#SVGID_4_);}
	.st5{fill:#4B556B;stroke:#4B556B;stroke-width:0.2;}
</style>
<g>
	<path class="st0" d="M0,0h100v100H0V0z"/>
	
		<linearGradient id="SVGID_1_" gradientUnits="userSpaceOnUse" x1="1.1254" y1="99.1709" x2="-4.480221e-02" y2="99.7024" gradientTransform="matrix(40.816 0 0 -51.888 29.382 5213.8618)">
		<stop  offset="0" style="stop-color:#4B556B"/>
		<stop  offset="0.1413" style="stop-color:#4B556B"/>
		<stop  offset="1" style="stop-color:#4B556B"/>
	</linearGradient>
	<path class="st1" d="M67.5,60.9h-3.2V28.1c0-1.7-1.4-3.1-3.1-3.1h-0.6c-1.7,0-3.1,1.4-3.1,3.1v12.2c0,1.5-1.2,2.7-2.7,2.7H44.6
		c-1.5,0-2.7-1.2-2.7-2.7V28.1c0-1.7-1.4-3.1-3.1-3.1h-0.6c-1.7,0-3.1,1.4-3.1,3.1v32.8h-3.1c-1.5,0-2.7,1.2-2.7,2.7v13.4h40.8V63.6
		C70.2,62.1,69,60.9,67.5,60.9z M45.7,73.1c0,0.1-0.1,0.2-0.2,0.2h-1c-0.1,0-0.2-0.1-0.2-0.2c0,0,0,0,0,0v-3h-3.6v3
		c0,0.1-0.1,0.2-0.2,0.2h-1c-0.1,0-0.2-0.1-0.2-0.2v-7.3c0-0.1,0.1-0.2,0.2-0.2h1c0.1,0,0.2,0.1,0.2,0.2v2.9h3.6v-2.9
		c0-0.1,0.1-0.2,0.2-0.2h1c0.1,0,0.2,0.1,0.2,0.2V73.1L45.7,73.1z M44.1,54v1.9h-2V54H44.1z M42.2,53.4v-2h2v2
		C44.1,53.4,42.2,53.4,42.2,53.4z M44.2,56.6v1.9h-2v-1.9H44.2z M44.1,59.1v1.8h-2v-1.8L44.1,59.1L44.1,59.1z M46.8,60.9h-2v-1.8h2
		C46.8,59.1,46.8,60.9,46.8,60.9z M46.8,58.5h-2v-1.9h2V58.5z M46.8,55.9h-2V54h2V55.9z M46.8,53.4h-2v-2h2V53.4z M49.4,54v1.9h-2
		V54H49.4z M47.4,53.4v-2h2v2H47.4z M49.4,56.6v1.9h-2v-1.9C47.4,56.6,49.4,56.6,49.4,56.6z M49.4,59.1v1.8h-2v-1.8H49.4z
		 M54.9,73.3h-1c-0.2,0-0.2-0.1-0.3-0.2l-0.5-1.2h-3.3l-0.5,1.2c0,0.1-0.2,0.2-0.3,0.2h-1c-0.2,0-0.3-0.1-0.2-0.3l3.4-7.4
		c0-0.1,0.1-0.1,0.2-0.1h0.1c0.1,0,0.2,0.1,0.2,0.1l3.4,7.4C55.2,73.1,55.1,73.3,54.9,73.3L54.9,73.3z M52.1,54v1.9h-2V54H52.1z
		 M50,53.4v-2h2v2H50z M52.1,56.6v1.9h-2v-1.9H52.1z M52.1,59.1v1.8h-2v-1.8H52.1z M54.7,54v1.9h-2V54H54.7z M52.7,53.4v-2h2v2
		C54.7,53.4,52.7,53.4,52.7,53.4z M54.7,56.6v1.9h-2v-1.9H54.7z M54.7,59.1v1.8h-2v-1.8H54.7z M57.4,54v1.9h-2V54H57.4L57.4,54z
		 M55.3,53.4v-2h2v2C57.4,53.4,55.3,53.4,55.3,53.4z M57.4,56.6v1.9h-2v-1.9H57.4z M57.4,59.1v1.8h-2v-1.8L57.4,59.1L57.4,59.1z
		 M61.2,66.7c0,0.1-0.1,0.2-0.2,0.2h-1.7v6.2c0,0.1-0.1,0.2-0.2,0.2h-1c-0.1,0-0.2-0.1-0.2-0.2v-6.2h-1.7c-0.1,0-0.2-0.1-0.2-0.2
		v-0.9c0-0.1,0.1-0.2,0.2-0.2H61c0.1,0,0.2,0.1,0.2,0.2L61.2,66.7L61.2,66.7z M62.1,60.9v0.7h-2.4v-9.8c0-1.4-1.2-2.6-2.6-2.6H42.5
		c-1.4,0-2.6,1.2-2.6,2.6v9.8h-2.4V28.1c0-0.4,0.3-0.8,0.8-0.8h0.6c0.4,0,0.8,0.3,0.8,0.8v12.2c0,2.7,2.2,5,5,5c0,0,0,0,0,0h10.3
		c2.7,0,5-2.2,5-5c0,0,0,0,0,0V28.1c0-0.4,0.3-0.8,0.8-0.8h0.6c0.4,0,0.8,0.3,0.8,0.8L62.1,60.9L62.1,60.9z"/>
	
		<linearGradient id="SVGID_2_" gradientUnits="userSpaceOnUse" x1="1.0496" y1="99.0787" x2="0.1913" y2="99.5314" gradientTransform="matrix(2.215 0 0 -2.426 50.363 310.8159)">
		<stop  offset="0" style="stop-color:#4B556B"/>
		<stop  offset="0.1413" style="stop-color:#4B556B"/>
		<stop  offset="1" style="stop-color:#4B556B"/>
	</linearGradient>
	<path class="st2" d="M51.4,68.2l-1.1,2.4h2.2L51.4,68.2L51.4,68.2z"/>
	
		<linearGradient id="SVGID_3_" gradientUnits="userSpaceOnUse" x1="0.8073" y1="98.933" x2="0.3455" y2="100.1162" gradientTransform="matrix(15.439 0 0 -68.878 -4.332831e-05 6905.7998)">
		<stop  offset="0" style="stop-color:#4B556B;stop-opacity:0"/>
		<stop  offset="0.6143" style="stop-color:#4B556B"/>
		<stop  offset="1" style="stop-color:#4B556B"/>
	</linearGradient>
	<path class="st3" d="M13.5,86.9C4.8,77.5,0,65.2,0,52.4C0,39.7,4.8,27.4,13.5,18l1.9,1.8C7.2,28.7,2.6,40.3,2.6,52.4
		c0,12.1,4.6,23.8,12.8,32.7L13.5,86.9z"/>
	
		<linearGradient id="SVGID_4_" gradientUnits="userSpaceOnUse" x1="0.1927" y1="98.9331" x2="0.6545" y2="100.1162" gradientTransform="matrix(15.439 0 0 -68.88 84.561 6905.9995)">
		<stop  offset="0" style="stop-color:#4B556B;stop-opacity:0"/>
		<stop  offset="0.6143" style="stop-color:#4B556B"/>
		<stop  offset="1" style="stop-color:#4B556B"/>
	</linearGradient>
	<path class="st4" d="M86.5,86.9l-1.9-1.8c8.2-8.9,12.8-20.5,12.8-32.7c0-12.1-4.6-23.8-12.8-32.7l1.9-1.8
		c8.7,9.4,13.5,21.7,13.5,34.4C100,65.2,95.2,77.5,86.5,86.9L86.5,86.9z"/>
	<g>
		<path class="st5" d="M17,12.7c-0.1-0.1,0-0.2,0-0.3l2.1-1.4c1.7-1.1,4-0.7,5.1,1c1.1,1.7,0.7,4-1,5.1l-2.1,1.4
			c-0.1,0.1-0.2,0-0.3-0.1L17,12.7L17,12.7z M22.4,16.1c1.1-0.8,1.4-2.2,0.6-3.3c-0.8-1.1-2.2-1.4-3.3-0.7l-1,0.7l2.7,4L22.4,16.1z
			 M26.4,14.7l-0.1-7.8c0-0.1,0-0.1,0.1-0.2l0.1,0c0.1,0,0.2,0,0.2,0l6,5c0.1,0.1,0.1,0.3,0,0.3l-0.8,0.4c-0.1,0.1-0.2,0-0.4-0.1
			l-1-0.8l-2.8,1.3l0,1.2c0,0.1-0.1,0.3-0.2,0.3l-0.8,0.4C26.5,14.9,26.4,14.8,26.4,14.7z M29.5,10.7l-1.9-1.6l0,0l0.1,2.5
			L29.5,10.7L29.5,10.7z"/>
		<path class="st5" d="M32.2,5.8l-1.5,0.5c-0.1,0-0.2,0-0.3-0.1c0,0,0,0,0,0l-0.3-0.8c0-0.1,0-0.2,0.1-0.3c0,0,0,0,0,0l4.4-1.5
			c0.1,0,0.2,0,0.3,0.1l0.3,0.8c0,0.1,0,0.2-0.1,0.3l-1.5,0.5l1.9,5.6c0,0.1,0,0.2-0.1,0.3l-0.9,0.3c-0.1,0-0.2,0-0.3-0.1L32.2,5.8
			L32.2,5.8z"/>
		<path class="st5" d="M36.8,10.3l1.8-7.6c0-0.1,0.1-0.1,0.2-0.2l0.1,0c0.1,0,0.2,0,0.2,0.1l4.6,6.3c0.1,0.1,0,0.3-0.1,0.3l-0.9,0.2
			c-0.2,0-0.2,0-0.3-0.1l-0.7-1l-3.1,0.6l-0.3,1.2c0,0.1-0.1,0.2-0.3,0.3L37,10.5C36.8,10.6,36.7,10.5,36.8,10.3L36.8,10.3z
			 M40.8,7.2l-1.5-2.1l0,0l-0.5,2.5L40.8,7.2L40.8,7.2z M46.7,1.7c0-0.1,0.1-0.2,0.2-0.2c0,0,0,0,0,0l3,0c1.3,0,2.3,1,2.3,2.2
			c0,1-0.6,1.8-1.5,2.1l1.5,2.7c0.1,0.1,0,0.3-0.2,0.3l-1.1,0c-0.1,0-0.1,0-0.2-0.1L49.3,6l-1.2,0l0,2.7c0,0.1-0.1,0.2-0.2,0.2l-1,0
			c-0.1,0-0.2-0.1-0.2-0.2c0,0,0,0,0,0L46.7,1.7L46.7,1.7z M49.9,4.8c0.6,0,1-0.5,1-1.1c0-0.6-0.5-1-1.1-1l-1.7,0l0,2.1
			C48.1,4.9,49.9,4.8,49.9,4.8z"/>
		<path class="st5" d="M54.4,1.9c0-0.1,0.1-0.2,0.2-0.2l1,0.1c0.1,0,0.2,0.1,0.2,0.2l-0.7,6.9c0,0.1-0.1,0.2-0.2,0.2l-1-0.1
			c-0.1,0-0.2-0.1-0.2-0.2C53.8,8.8,54.4,1.9,54.4,1.9z M61.7,2.6c0.9,0.2,1.7,0.7,2.3,1.5c0.1,0.1,0.1,0.2,0,0.3L63.1,5
			C63,5,63,5,62.9,4.9C62.5,4.4,62,4.1,61.4,4c-1.3-0.3-2.5,0.6-2.8,1.9c-0.3,1.3,0.5,2.6,1.8,2.8c0.6,0.1,1.1,0,1.3,0l0.2-0.9
			l-0.8-0.2c-0.1,0-0.2-0.1-0.2-0.2l0.2-0.8c0-0.1,0.1-0.2,0.2-0.2c0,0,0,0,0,0l2,0.4c0.1,0,0.2,0.1,0.1,0.2l-0.6,2.6
			c0,0.1-0.1,0.1-0.1,0.1c0,0-1.2,0.4-2.7,0.1c-2-0.4-3.3-2.4-2.9-4.4c0,0,0,0,0,0C57.6,3.5,59.6,2.2,61.7,2.6
			C61.6,2.6,61.7,2.6,61.7,2.6L61.7,2.6z M66.6,4.2c0-0.1,0.2-0.2,0.3-0.1l0.9,0.4c0.1,0,0.2,0.2,0.1,0.3l-1,2.6l3.2,1.2l1-2.6
			c0-0.1,0.2-0.2,0.3-0.1l0.9,0.3c0.1,0,0.2,0.2,0.1,0.3l-2.5,6.5c0,0.1-0.2,0.2-0.3,0.1l-0.9-0.4c-0.1,0-0.2-0.2-0.1-0.3
			c0,0,0,0,0,0l1-2.7l-3.2-1.2l-1,2.7c0,0.1-0.2,0.2-0.3,0.1c0,0,0,0,0,0L64.3,11c-0.1,0-0.2-0.2-0.1-0.3
			C64.1,10.7,66.6,4.2,66.6,4.2z M75.2,9.1l-1.4-0.8c-0.1-0.1-0.1-0.2-0.1-0.3c0,0,0,0,0,0l0.4-0.8c0.1-0.1,0.2-0.1,0.3-0.1
			c0,0,0,0,0,0l4,2.2c0.1,0.1,0.1,0.2,0.1,0.3l-0.4,0.8c-0.1,0.1-0.2,0.1-0.3,0.1l-1.4-0.8l-2.9,5.2c-0.1,0.1-0.2,0.1-0.3,0.1
			l-0.9-0.5c-0.1-0.1-0.1-0.2-0.1-0.3C72.4,14.3,75.2,9.1,75.2,9.1z M76.1,15.4l0.7-0.3c0.2-0.1,0.3,0,0.3,0.1
			c0,0.1,0.4,1.1,0.9,1.5c0.4,0.3,1,0.3,1.3-0.1c0.3-0.4,0.2-1-0.4-1.8c-0.6-0.9-1-2-0.3-3c0.5-0.8,1.7-1.2,3.1-0.3
			c0.9,0.6,1.2,1.5,1.3,1.8c0.1,0.1,0,0.3-0.1,0.3l-0.7,0.3c-0.1,0.1-0.3,0-0.4-0.1c0-0.1-0.4-1-0.9-1.3c-0.5-0.4-1-0.2-1.2,0.1
			c-0.3,0.4-0.2,0.9,0.3,1.7c0.6,0.9,1.2,2.1,0.4,3.2c-0.6,0.9-2,1.2-3.2,0.3C76.3,17,76,16,76,15.7C75.9,15.6,75.9,15.5,76.1,15.4z
			"/>
	</g>
	<g>
		<path class="st5" d="M19.8,90.4c0-0.1,0.1-0.2,0.2-0.2h2.5c1.3,0,2.4,1.1,2.4,2.3c0,1.3-1.1,2.4-2.3,2.4h-1.3v2.5
			c0,0.1-0.1,0.2-0.2,0.2h-1c-0.1,0-0.2-0.1-0.2-0.2L19.8,90.4L19.8,90.4z M22.4,93.7c0.6,0,1.1-0.5,1.1-1.1c0-0.6-0.5-1-1.1-1h-1.2
			v2.1C21.2,93.7,22.4,93.7,22.4,93.7z M26.4,90.4c0-0.1,0.1-0.2,0.2-0.2h3c1.3,0,2.3,1,2.3,2.3c0,1-0.6,1.8-1.6,2.1l1.4,2.7
			c0.1,0.1,0,0.3-0.2,0.3h-1.1c-0.1,0-0.1,0-0.2-0.1l-1.4-2.8h-1.2v2.7c0,0.1-0.1,0.2-0.2,0.2h-1c-0.1,0-0.2-0.1-0.2-0.2L26.4,90.4
			L26.4,90.4z M29.5,93.6c0.6,0,1-0.5,1-1.1c0-0.6-0.5-1-1-1h-1.7v2.1C27.8,93.6,29.5,93.6,29.5,93.6z M37,90.1
			c2.1,0,3.8,1.7,3.8,3.8c0,0,0,0,0,0c0,2.1-1.7,3.8-3.7,3.8c0,0,0,0,0,0c-2.1,0-3.8-1.7-3.8-3.7c0,0,0,0,0,0
			C33.2,91.9,34.8,90.2,37,90.1C36.9,90.1,36.9,90.1,37,90.1L37,90.1z M37,96.3c1.3,0,2.4-1.1,2.4-2.4c0-1.3-1.1-2.4-2.4-2.4
			c-1.3,0-2.4,1.1-2.4,2.4C34.6,95.3,35.6,96.3,37,96.3L37,96.3z"/>
		<path class="st5" d="M43.4,91.5h-1.6c-0.1,0-0.2-0.1-0.2-0.2v-0.9c0-0.1,0.1-0.2,0.2-0.2h4.6c0.1,0,0.2,0.1,0.2,0.2c0,0,0,0,0,0
			v0.9c0,0.1-0.1,0.2-0.2,0.2h-1.6v5.9c0,0.1-0.1,0.2-0.2,0.2h-1c-0.1,0-0.2-0.1-0.2-0.2C43.4,97.4,43.4,91.5,43.4,91.5z M48,90.4
			c0-0.1,0.1-0.2,0.2-0.2h4.3c0.1,0,0.2,0.1,0.2,0.2v0.9c0,0.1-0.1,0.2-0.2,0.2c0,0,0,0,0,0h-3.1v1.7h2.6c0.1,0,0.2,0.1,0.2,0.2v0.9
			c0,0.1-0.1,0.2-0.2,0.2h-2.6v1.8h3.1c0.1,0,0.2,0.1,0.2,0.2v0.9c0,0.1-0.1,0.2-0.2,0.2h-4.3c-0.1,0-0.2-0.1-0.2-0.2c0,0,0,0,0,0
			L48,90.4L48,90.4z M57.7,90.1c1.1,0,1.8,0.3,2.5,1c0.1,0.1,0.1,0.2,0,0.3l-0.6,0.7c-0.1,0.1-0.2,0.1-0.3,0c-0.4-0.4-1-0.6-1.6-0.6
			c-1.3,0-2.3,1.1-2.3,2.5c0,1.3,1,2.4,2.4,2.4c0.6,0,1.2-0.2,1.6-0.6c0.1-0.1,0.2-0.1,0.3,0l0.7,0.7c0.1,0.1,0.1,0.2,0,0.3
			c-0.7,0.7-1.6,1-2.6,1c-2.1,0-3.8-1.7-3.8-3.7c0,0,0,0,0,0C53.9,91.8,55.6,90.1,57.7,90.1C57.7,90.1,57.7,90.1,57.7,90.1
			L57.7,90.1z M62.9,91.5h-1.6c-0.1,0-0.2-0.1-0.2-0.2v-0.9c0-0.1,0.1-0.2,0.2-0.2h4.6c0.1,0,0.2,0.1,0.2,0.2v0.9
			c0,0.1-0.1,0.2-0.2,0.2c0,0,0,0,0,0h-1.6v5.9c0,0.1-0.1,0.2-0.2,0.2h-1c-0.1,0-0.2-0.1-0.2-0.2C62.9,97.4,62.9,91.5,62.9,91.5z
			 M67.5,90.4c0-0.1,0.1-0.2,0.2-0.2H72c0.1,0,0.2,0.1,0.2,0.2v0.9c0,0.1-0.1,0.2-0.2,0.2h-3.1v1.7h2.6c0.1,0,0.2,0.1,0.2,0.2v0.9
			c0,0.1-0.1,0.2-0.2,0.2h-2.6v1.8H72c0.1,0,0.2,0.1,0.2,0.2v0.9c0,0.1-0.1,0.2-0.2,0.2h-4.3c-0.1,0-0.2-0.1-0.2-0.2L67.5,90.4
			L67.5,90.4z"/>
		<path class="st5" d="M74,90.4c0-0.1,0.1-0.2,0.2-0.2h2.5c2,0,3.7,1.7,3.7,3.7c0,2-1.7,3.7-3.7,3.7h-2.5c-0.1,0-0.2-0.1-0.2-0.2
			L74,90.4L74,90.4z M76.6,96.3c1.4,0,2.4-1,2.4-2.4c0-1.4-1-2.4-2.4-2.4h-1.2v4.8H76.6z"/>
	</g>
</g>
</svg>
